<svg id="Layer_1" data-name="Layer 1" xmlns="http://www.w3.org/2000/svg" viewBox="0 0 453 453"><defs><style>.cls-1{fill:#fff;}</style></defs><rect x="0.5" y="0.5" width="452" height="452" rx="66.72"/><path d="M581.78,171A66.3,66.3,0,0,1,648,237.22V555.78A66.3,66.3,0,0,1,581.78,622H263.22A66.3,66.3,0,0,1,197,555.78V237.22A66.3,66.3,0,0,1,263.22,171H581.78m0-1H263.22A67.23,67.23,0,0,0,196,237.22V555.78A67.22,67.22,0,0,0,263.22,623H581.78A67.21,67.21,0,0,0,649,555.78V237.22A67.22,67.22,0,0,0,581.78,170Z" transform="translate(-196 -170)"/><path class="cls-1" d="M536.36,243.91a44.08,44.08,0,0,1,44,44V505.06a44.08,44.08,0,0,1-44,44H308.64a44.08,44.08,0,0,1-44-44V287.94a44.08,44.08,0,0,1,44-44H536.36m0-15H308.64a59,59,0,0,0-59,59V505.06a59,59,0,0,0,59,59H536.36a59,59,0,0,0,59-59V287.94a59,59,0,0,0-59-59Z" transform="translate(-196 -170)"/><path class="cls-1" d="M422.5,316A80.5,80.5,0,1,1,342,396.5,80.59,80.59,0,0,1,422.5,316m0-15A95.5,95.5,0,1,0,518,396.5,95.5,95.5,0,0,0,422.5,301Z" transform="translate(-196 -170)"/><circle class="cls-1" cx="322" cy="131" r="17.5"/><path d="M518,284a17,17,0,1,1-17,17,17,17,0,0,1,17-17m0-1a18,18,0,1,0,18,18,18,18,0,0,0-18-18Z" transform="translate(-196 -170)"/></svg>