<svg id="Layer_1" data-name="Layer 1" xmlns="http://www.w3.org/2000/svg" viewBox="0 0 453 453"><defs><style>.cls-1{fill:#fff;stroke:#fff;stroke-miterlimit:10;}</style></defs><rect x="0.5" y="0.5" width="452" height="452" rx="66.72"/><path d="M841.8,158.85A66.29,66.29,0,0,1,908,225.07V543.63a66.29,66.29,0,0,1-66.22,66.22H523.24A66.3,66.3,0,0,1,457,543.63V225.07a66.29,66.29,0,0,1,66.22-66.22H841.8m0-1H523.24A67.22,67.22,0,0,0,456,225.07V543.63a67.23,67.23,0,0,0,67.22,67.22H841.8A67.22,67.22,0,0,0,909,543.63V225.07a67.21,67.21,0,0,0-67.22-67.22Z" transform="translate(-456.02 -157.85)"/><path class="cls-1" d="M584.89,263.33c0,19.25-14.39,35.19-39,35.19-23.63,0-38-15.94-38-35.19,0-19.6,14.58-35.19,38.57-35.19S584.53,243.63,584.89,263.33ZM510.1,547.51V325.85h72.19V547.51Z" transform="translate(-456.02 -157.85)"/><path class="cls-1" d="M641.87,398c0-28.74-.81-52.73-1.81-72.18h62.62l3.24,32.41h1.62c8.13-13.15,31.79-37.84,73.42-37.84,46.36,0,86.12,29.06,86.12,99.53V547.51H794.89V430c0-31.85-12.14-51.94-39.46-51.94-22,0-34.21,15.43-39.17,28.06-1.81,4.26-2.2,10.53-2.2,15.9V547.51H641.87Z" transform="translate(-456.02 -157.85)"/></svg>