<svg id="Layer_1" data-name="Layer 1" xmlns="http://www.w3.org/2000/svg" viewBox="0 0 536.44 476.85"><defs><style>.cls-1{fill:#fff;}</style></defs><rect x="41.97" y="24.35" width="452" height="452" rx="66.72"/><path d="M841.8,158.85A66.29,66.29,0,0,1,908,225.07V543.63a66.29,66.29,0,0,1-66.22,66.22H523.24A66.3,66.3,0,0,1,457,543.63V225.07a66.29,66.29,0,0,1,66.22-66.22H841.8m0-1H523.24A67.22,67.22,0,0,0,456,225.07V543.63a67.23,67.23,0,0,0,67.22,67.22H841.8A67.22,67.22,0,0,0,909,543.63V225.07a67.21,67.21,0,0,0-67.22-67.22Z" transform="translate(-414.56 -134)"/><path class="cls-1" d="M915.68,149,682.78,390.4,449.87,149H915.68M951,134H414.56L682.78,412,951,134Z" transform="translate(-414.56 -134)"/></svg>