<svg id="Layer_1" data-name="Layer 1" xmlns="http://www.w3.org/2000/svg" viewBox="0 0 453 453"><defs><style>.cls-1{fill:#fff;stroke:#fff;stroke-miterlimit:10;stroke-width:15px;fill-rule:evenodd;}</style></defs><rect x="0.5" y="0.5" width="452" height="452" rx="66.72"/><path d="M810.78,158A66.3,66.3,0,0,1,877,224.22V542.78A66.3,66.3,0,0,1,810.78,609H492.22A66.3,66.3,0,0,1,426,542.78V224.22A66.3,66.3,0,0,1,492.22,158H810.78m0-1H492.22A67.23,67.23,0,0,0,425,224.22V542.78A67.22,67.22,0,0,0,492.22,610H810.78A67.21,67.21,0,0,0,878,542.78V224.22A67.22,67.22,0,0,0,810.78,157Z" transform="translate(-425 -157)"/><polygon class="cls-1" points="354.86 226.52 98.36 78.44 98.36 374.61 354.86 226.52"/></svg>